<svg xmlns="http://www.w3.org/2000/svg" version="1.1" viewBox="-5.0 -10.0 110.0 135.0">
 <path d="m56.449 29.289h4.5195c1.0781 0 1.9531 0.875 1.9531 1.9531v6.4844c0.72656 0.15625 1.3984 0.51953 1.9297 1.0547 0.73047 0.73047 1.1445 1.7266 1.1445 2.7617v50.227c0 1.0352-0.41016 2.0273-1.1445 2.7617-0.73047 0.73047-1.7266 1.1445-2.7617 1.1445h-24.211c-1.0352 0-2.0273-0.41016-2.7617-1.1445-0.73047-0.73047-1.1445-1.7266-1.1445-2.7617v-50.227c0-1.0352 0.41016-2.0273 1.1445-2.7617 0.53516-0.53516 1.2031-0.89453 1.9297-1.0547v-6.4844c0-1.0781 0.875-1.9531 1.9531-1.9531h4.5195l2.1758-23.223c0.09375-1.0039 0.9375-1.7695 1.9453-1.7695h4.6875c1.0078 0 1.8516 0.76562 1.9453 1.7695zm-11.148 3.9062h-4.3438v4.4414h18.062v-4.4414zm7.2266-3.9062-1.9766-21.086h-1.1289l-1.9766 21.086zm9.5625 12.254h-24.055c-0.03125 0.125-0.15625 0.30469-0.15625 0v50.227h24.211c-0.30469 0-0.125-0.125 0-0.15625z" fill-rule="evenodd"/>
<text x="0.0" y="117.5" font-size="5.0" font-weight="bold" font-family="Arbeit Regular, Helvetica, Arial-Unicode, Arial, Sans-serif" fill="#000000">by Muhammad Nur Auliady Pamungkas</text><text x="0.0" y="122.5" font-size="5.0" font-weight="bold" font-family="Arbeit Regular, Helvetica, Arial-Unicode, Arial, Sans-serif" fill="#000000">from Noun Project</text></svg>